<?xml version="1.0" encoding="UTF-8" standalone="no"?>
<!DOCTYPE svg PUBLIC "-//W3C//DTD SVG 1.1//EN"
 "http://www.w3.org/Graphics/SVG/1.1/DTD/svg11.dtd">
<!-- Generated by graphviz version 2.40.1 (20161225.0304)
 -->
<!-- Title: state transitions Pages: 1 -->
<svg width="923pt" height="294pt"
 viewBox="0.00 0.00 923.00 294.00" xmlns="http://www.w3.org/2000/svg" xmlns:xlink="http://www.w3.org/1999/xlink">
<g id="graph0" class="graph" transform="scale(1 1) rotate(0) translate(4 290)">
<title>state transitions</title>
<polygon fill="#ffffff" stroke="transparent" points="-4,4 -4,-290 919,-290 919,4 -4,4"/>
<g id="clust1" class="cluster state regular">
<title>cluster_state</title>
<path fill="none" stroke="#000000" stroke-width="2" d="M20,-8C20,-8 895,-8 895,-8 901,-8 907,-14 907,-20 907,-20 907,-266 907,-266 907,-272 901,-278 895,-278 895,-278 20,-278 20,-278 14,-278 8,-272 8,-266 8,-266 8,-20 8,-20 8,-14 14,-8 20,-8"/>
<text text-anchor="start" x="444.4944" y="-259.2" font-family="Helvetica,sans-Serif" font-size="12.00" fill="#000000">state</text>
</g>
<!-- state -->
<!-- STATE_EXEC -->
<g id="node2" class="node state regular">
<title>STATE_EXEC</title>
<polygon fill="#ffffff" fill-opacity="0.003922" stroke="transparent" stroke-width="2" points="599,-240 499,-240 499,-204 599,-204 599,-240"/>
<text text-anchor="start" x="509.994" y="-218.2" font-family="Helvetica,sans-Serif" font-size="12.00" fill="#000000">STATE_EXEC</text>
<path fill="none" stroke="#000000" stroke-width="2" d="M511.3333,-205C511.3333,-205 586.6667,-205 586.6667,-205 592.3333,-205 598,-210.6667 598,-216.3333 598,-216.3333 598,-227.6667 598,-227.6667 598,-233.3333 592.3333,-239 586.6667,-239 586.6667,-239 511.3333,-239 511.3333,-239 505.6667,-239 500,-233.3333 500,-227.6667 500,-227.6667 500,-216.3333 500,-216.3333 500,-210.6667 505.6667,-205 511.3333,-205"/>
</g>
<!-- STATE_WAIT_JUMP -->
<g id="node3" class="node state regular">
<title>STATE_WAIT_JUMP</title>
<polygon fill="#ffffff" fill-opacity="0.003922" stroke="transparent" stroke-width="2" points="419,-134 283,-134 283,-98 419,-98 419,-134"/>
<text text-anchor="start" x="293.6664" y="-112.2" font-family="Helvetica,sans-Serif" font-size="12.00" fill="#000000">STATE_WAIT_JUMP</text>
<path fill="none" stroke="#000000" stroke-width="2" d="M295.3333,-99C295.3333,-99 406.6667,-99 406.6667,-99 412.3333,-99 418,-104.6667 418,-110.3333 418,-110.3333 418,-121.6667 418,-121.6667 418,-127.3333 412.3333,-133 406.6667,-133 406.6667,-133 295.3333,-133 295.3333,-133 289.6667,-133 284,-127.3333 284,-121.6667 284,-121.6667 284,-110.3333 284,-110.3333 284,-104.6667 289.6667,-99 295.3333,-99"/>
</g>
<!-- STATE_EXEC&#45;&gt;STATE_WAIT_JUMP -->
<g id="edge2" class="edge transition">
<title>STATE_EXEC&#45;&gt;STATE_WAIT_JUMP</title>
<path fill="none" stroke="#000000" d="M498.9192,-217.7957C434.9816,-211.9123 331.1929,-200.4241 319.662,-187 309.2366,-174.8628 313.9489,-165.9453 319.662,-151 320.7905,-148.0478 322.2954,-145.1875 324.0369,-142.4588"/>
<polygon fill="#000000" stroke="#000000" points="327.008,-144.3319 330.234,-134.2401 321.4188,-140.1174 327.008,-144.3319"/>
<text text-anchor="start" x="319" y="-178" font-family="Helvetica,sans-Serif" font-size="10.00" fill="#000000">data_zero &#160;&#160;</text>
<text text-anchor="start" x="319" y="-166" font-family="Helvetica,sans-Serif" font-size="10.00" fill="#000000">op_openb &#160;&#160;</text>
<text text-anchor="start" x="319" y="-154" font-family="Helvetica,sans-Serif" font-size="10.00" fill="#000000">instr_valid &#160;&#160;</text>
</g>
<!-- STATE_EXEC&#45;&gt;STATE_WAIT_JUMP -->
<g id="edge3" class="edge transition">
<title>STATE_EXEC&#45;&gt;STATE_WAIT_JUMP</title>
<path fill="none" stroke="#000000" d="M498.7911,-220.0689C413.8637,-216.2818 249.3294,-206.4956 231.867,-187 221.1919,-175.0819 222.2795,-163.8094 231.867,-151 237.6961,-143.2121 254.222,-136.5652 273.1781,-131.2229"/>
<polygon fill="#000000" stroke="#000000" points="274.187,-134.5764 282.9542,-128.6276 272.3909,-127.8107 274.187,-134.5764"/>
<text text-anchor="start" x="231" y="-178" font-family="Helvetica,sans-Serif" font-size="10.00" fill="#000000">not (data_zero) &#160;&#160;</text>
<text text-anchor="start" x="231" y="-166" font-family="Helvetica,sans-Serif" font-size="10.00" fill="#000000">op_closeb &#160;&#160;</text>
<text text-anchor="start" x="231" y="-154" font-family="Helvetica,sans-Serif" font-size="10.00" fill="#000000">instr_valid &#160;&#160;</text>
</g>
<!-- STATE_WAIT_IO -->
<g id="node4" class="node state regular">
<title>STATE_WAIT_IO</title>
<polygon fill="#ffffff" fill-opacity="0.003922" stroke="transparent" stroke-width="2" points="767,-134 651,-134 651,-98 767,-98 767,-134"/>
<text text-anchor="start" x="661.6618" y="-112.2" font-family="Helvetica,sans-Serif" font-size="12.00" fill="#000000">STATE_WAIT_IO</text>
<path fill="none" stroke="#000000" stroke-width="2" d="M663.3333,-99C663.3333,-99 754.6667,-99 754.6667,-99 760.3333,-99 766,-104.6667 766,-110.3333 766,-110.3333 766,-121.6667 766,-121.6667 766,-127.3333 760.3333,-133 754.6667,-133 754.6667,-133 663.3333,-133 663.3333,-133 657.6667,-133 652,-127.3333 652,-121.6667 652,-121.6667 652,-110.3333 652,-110.3333 652,-104.6667 657.6667,-99 663.3333,-99"/>
</g>
<!-- STATE_EXEC&#45;&gt;STATE_WAIT_IO -->
<g id="edge4" class="edge transition">
<title>STATE_EXEC&#45;&gt;STATE_WAIT_IO</title>
<path fill="none" stroke="#000000" d="M575.0814,-203.9666C596.1616,-189.4737 626.664,-168.6887 653.662,-151 659.3478,-147.2748 665.3967,-143.3802 671.3288,-139.5987"/>
<polygon fill="#000000" stroke="#000000" points="673.3123,-142.4853 679.8805,-134.1721 669.5617,-136.5748 673.3123,-142.4853"/>
<text text-anchor="start" x="653" y="-172" font-family="Helvetica,sans-Serif" font-size="10.00" fill="#000000">is_io_op &#160;&#160;</text>
<text text-anchor="start" x="653" y="-160" font-family="Helvetica,sans-Serif" font-size="10.00" fill="#000000">instr_valid &#160;&#160;</text>
</g>
<!-- STATE_SPI_WRITE -->
<g id="node5" class="node state regular">
<title>STATE_SPI_WRITE</title>
<polygon fill="#ffffff" fill-opacity="0.003922" stroke="transparent" stroke-width="2" points="229,-134 97,-134 97,-98 229,-98 229,-134"/>
<text text-anchor="start" x="107.995" y="-112.2" font-family="Helvetica,sans-Serif" font-size="12.00" fill="#000000">STATE_SPI_WRITE</text>
<path fill="none" stroke="#000000" stroke-width="2" d="M109.3333,-99C109.3333,-99 216.6667,-99 216.6667,-99 222.3333,-99 228,-104.6667 228,-110.3333 228,-110.3333 228,-121.6667 228,-121.6667 228,-127.3333 222.3333,-133 216.6667,-133 216.6667,-133 109.3333,-133 109.3333,-133 103.6667,-133 98,-127.3333 98,-121.6667 98,-121.6667 98,-110.3333 98,-110.3333 98,-104.6667 103.6667,-99 109.3333,-99"/>
</g>
<!-- STATE_EXEC&#45;&gt;STATE_SPI_WRITE -->
<g id="edge1" class="edge transition">
<title>STATE_EXEC&#45;&gt;STATE_SPI_WRITE</title>
<path fill="none" stroke="#000000" d="M498.8561,-219.7268C388.0577,-214.4615 131.1413,-200.82 118.399,-187 107.5533,-175.2369 111.4004,-165.3882 118.399,-151 120.0458,-147.6144 122.1962,-144.4592 124.6629,-141.541"/>
<polygon fill="#000000" stroke="#000000" points="127.224,-143.9293 131.8027,-134.3749 122.2651,-138.9887 127.224,-143.9293"/>
<text text-anchor="start" x="118" y="-178" font-family="Helvetica,sans-Serif" font-size="10.00" fill="#000000">need_spi_fetch_next &#160;&#160;</text>
<text text-anchor="start" x="118" y="-166" font-family="Helvetica,sans-Serif" font-size="10.00" fill="#000000">is_ptr_op &#160;&#160;</text>
<text text-anchor="start" x="118" y="-154" font-family="Helvetica,sans-Serif" font-size="10.00" fill="#000000">instr_valid &#160;&#160;</text>
</g>
<!-- STATE_WAIT_JUMP&#45;&gt;STATE_EXEC -->
<g id="edge5" class="edge transition">
<title>STATE_WAIT_JUMP&#45;&gt;STATE_EXEC</title>
<path fill="none" stroke="#000000" d="M363.2586,-134.1664C375.1364,-150.3809 394.6002,-173.5777 416.959,-187 438.6645,-200.0301 465.2276,-208.2792 488.8229,-213.4688"/>
<polygon fill="#000000" stroke="#000000" points="488.23,-216.9201 498.7306,-215.5107 489.6429,-210.0642 488.23,-216.9201"/>
<text text-anchor="start" x="416" y="-172" font-family="Helvetica,sans-Serif" font-size="10.00" fill="#000000">tx_done &#160;&#160;</text>
<text text-anchor="start" x="416" y="-160" font-family="Helvetica,sans-Serif" font-size="10.00" fill="#000000">op_saved == `CLOSE &#160;&#160;</text>
</g>
<!-- STATE_WAIT_JUMP&#45;&gt;STATE_EXEC -->
<g id="edge6" class="edge transition">
<title>STATE_WAIT_JUMP&#45;&gt;STATE_EXEC</title>
<path fill="none" stroke="#000000" d="M419.0455,-123.0161C460.0772,-128.5219 507.3467,-137.5385 523,-151 535.4137,-161.6755 541.903,-178.8022 545.294,-193.5599"/>
<polygon fill="#000000" stroke="#000000" points="541.9302,-194.6019 547.256,-203.7609 548.8042,-193.2798 541.9302,-194.6019"/>
<text text-anchor="start" x="543" y="-166" font-family="Helvetica,sans-Serif" font-size="10.00" fill="#000000">rx_done &#160;&#160;</text>
</g>
<!-- STATE_WAIT_IO&#45;&gt;STATE_EXEC -->
<g id="edge7" class="edge transition">
<title>STATE_WAIT_IO&#45;&gt;STATE_EXEC</title>
<path fill="none" stroke="#000000" d="M714.4334,-134.1331C717.949,-149.877 719.9199,-172.3828 708,-187 695.4702,-202.365 648.9247,-211.4006 609.4074,-216.4297"/>
<polygon fill="#000000" stroke="#000000" points="608.7827,-212.9796 599.2745,-217.6535 609.622,-219.9291 608.7827,-212.9796"/>
<text text-anchor="start" x="717" y="-172" font-family="Helvetica,sans-Serif" font-size="10.00" fill="#000000">tx_done &#160;&#160;</text>
<text text-anchor="start" x="717" y="-160" font-family="Helvetica,sans-Serif" font-size="10.00" fill="#000000">op_output &#160;&#160;</text>
</g>
<!-- STATE_WAIT_IO&#45;&gt;STATE_EXEC -->
<g id="edge8" class="edge transition">
<title>STATE_WAIT_IO&#45;&gt;STATE_EXEC</title>
<path fill="none" stroke="#000000" d="M758.4446,-134.185C765.0393,-138.6849 770.9215,-144.2207 775,-151 783.2481,-164.7102 785.412,-174.8514 775,-187 764.2923,-199.4937 672.687,-210.4829 609.4436,-216.6773"/>
<polygon fill="#000000" stroke="#000000" points="608.7825,-213.2247 599.1639,-217.6667 609.4532,-220.1925 608.7825,-213.2247"/>
<text text-anchor="start" x="782" y="-166" font-family="Helvetica,sans-Serif" font-size="10.00" fill="#000000">rx_done &#160;&#160;</text>
</g>
<!-- STATE_SPI_FETCH -->
<g id="node6" class="node state regular">
<title>STATE_SPI_FETCH</title>
<polygon fill="#ffffff" fill-opacity="0.003922" stroke="transparent" stroke-width="2" points="529.5,-52 396.5,-52 396.5,-16 529.5,-16 529.5,-52"/>
<text text-anchor="start" x="407.829" y="-30.2" font-family="Helvetica,sans-Serif" font-size="12.00" fill="#000000">STATE_SPI_FETCH</text>
<path fill="none" stroke="#000000" stroke-width="2" d="M408.8333,-17C408.8333,-17 517.1667,-17 517.1667,-17 522.8333,-17 528.5,-22.6667 528.5,-28.3333 528.5,-28.3333 528.5,-39.6667 528.5,-39.6667 528.5,-45.3333 522.8333,-51 517.1667,-51 517.1667,-51 408.8333,-51 408.8333,-51 403.1667,-51 397.5,-45.3333 397.5,-39.6667 397.5,-39.6667 397.5,-28.3333 397.5,-28.3333 397.5,-22.6667 403.1667,-17 408.8333,-17"/>
</g>
<!-- STATE_SPI_WRITE&#45;&gt;STATE_SPI_FETCH -->
<g id="edge9" class="edge transition">
<title>STATE_SPI_WRITE&#45;&gt;STATE_SPI_FETCH</title>
<path fill="none" stroke="#000000" d="M229.2077,-97.9032C275.8612,-85.1513 338.4372,-68.0472 387.1095,-54.7434"/>
<polygon fill="#000000" stroke="#000000" points="388.2381,-58.0634 396.9614,-52.0505 386.3924,-51.3111 388.2381,-58.0634"/>
<text text-anchor="start" x="332" y="-72" font-family="Helvetica,sans-Serif" font-size="10.00" fill="#000000">spi_transfer_done &#160;&#160;</text>
</g>
<!-- STATE_SPI_FETCH&#45;&gt;STATE_EXEC -->
<g id="edge10" class="edge transition">
<title>STATE_SPI_FETCH&#45;&gt;STATE_EXEC</title>
<path fill="none" stroke="#000000" d="M529.524,-42.9142C608.7999,-54.3285 735.844,-75.356 778,-98 807.3469,-113.7636 818.2518,-120.2232 831,-151 837.1229,-165.7821 841.5677,-174.9866 831,-187 823.7349,-195.259 689.6893,-209.0006 609.0619,-216.5751"/>
<polygon fill="#000000" stroke="#000000" points="608.6552,-213.0978 599.0239,-217.5122 609.3059,-220.0674 608.6552,-213.0978"/>
<text text-anchor="start" x="822" y="-113" font-family="Helvetica,sans-Serif" font-size="10.00" fill="#000000">spi_transfer_done &#160;&#160;</text>
</g>
</g>
</svg>
